<svg xmlns="http://www.w3.org/2000/svg" viewBox="0 0 495.26 463.27"><defs><style>.cls-1{fill:#fff;}</style></defs><title>lines-light</title><g id="Layer_2" data-name="Layer 2"><g id="Layer_1-2" data-name="Layer 1"><path class="cls-1" d="M175,296.37a8.5,8.5,0,0,1-6.22-14.27L383,51.21A8.5,8.5,0,0,1,395.5,62.77L181.22,293.66A8.54,8.54,0,0,1,175,296.37Z"/><path d="M389.27,49a8,8,0,0,1,5.86,13.43L180.85,293.32a8,8,0,0,1-11.3.42,8,8,0,0,1-.42-11.3L383.4,51.55A8,8,0,0,1,389.27,49m0-1a9,9,0,0,0-6.6,2.87L168.39,281.76a9,9,0,0,0,.48,12.72h0a9,9,0,0,0,12.72-.48L395.86,63.11A9,9,0,0,0,389.27,48Z"/><path class="cls-1" d="M272,248.37a8.5,8.5,0,0,1-6.22-14.27L480,3.21A8.5,8.5,0,1,1,492.5,14.77L278.22,245.66A8.54,8.54,0,0,1,272,248.37Z"/><path d="M486.27,1a8,8,0,0,1,5.86,13.43L277.85,245.32a8,8,0,0,1-11.3.42,8,8,0,0,1-.42-11.3L480.4,3.55A8,8,0,0,1,486.27,1m0-1a9,9,0,0,0-6.6,2.87L265.39,233.76a9,9,0,0,0,.48,12.72h0a9,9,0,0,0,12.72-.48L492.86,15.11A9,9,0,0,0,486.27,0Z"/><path class="cls-1" d="M183,399.37a8.5,8.5,0,0,1-6.22-14.27L391,154.21a8.5,8.5,0,0,1,12.46,11.56L189.22,396.66A8.54,8.54,0,0,1,183,399.37Z"/><path d="M397.27,152a8,8,0,0,1,5.86,13.43L188.85,396.32a8,8,0,0,1-11.3.42,8,8,0,0,1-.42-11.3L391.4,154.55a8,8,0,0,1,5.87-2.55m0-1a9,9,0,0,0-6.6,2.87L176.39,384.76a9,9,0,0,0,.48,12.72h0a9,9,0,0,0,12.72-.48L403.86,166.11A9,9,0,0,0,397.27,151Z"/><path class="cls-1" d="M236.87,285.91a8.49,8.49,0,0,1-6.23-14.27L244,257.21a8.5,8.5,0,0,1,12.46,11.56L243.1,283.2a8.52,8.52,0,0,1-6.23,2.71Z"/><path d="M250.27,255a8,8,0,0,1,5.86,13.43l-13.39,14.43a8,8,0,0,1-11.31.42A8,8,0,0,1,231,272l13.39-14.43a8,8,0,0,1,5.87-2.55m0-1a9,9,0,0,0-6.6,2.87L230.28,271.3a9,9,0,0,0,.47,12.72h0a9,9,0,0,0,12.72-.48l13.39-14.43a9,9,0,0,0-.47-12.72h0a9,9,0,0,0-6.12-2.39Z"/><path class="cls-1" d="M188.13,338.72a8.49,8.49,0,0,1-6.23-14.27L209,295.21a8.5,8.5,0,0,1,12.46,11.56L194.36,336a8.53,8.53,0,0,1-6.23,2.71Z"/><path d="M215.27,293a8,8,0,0,1,5.86,13.43L194,335.67a8,8,0,0,1-11.73-10.88l27.13-29.24a8,8,0,0,1,5.87-2.55m0-1a9,9,0,0,0-6.6,2.87l-27.14,29.24a9,9,0,0,0,.48,12.71,9,9,0,0,0,12.72-.47l27.13-29.24a9,9,0,0,0-.47-12.72h0a9,9,0,0,0-6.12-2.39Z"/><path class="cls-1" d="M73.11,462.77a8.5,8.5,0,0,1-6.23-14.27L159,349.21a8.5,8.5,0,0,1,12.46,11.56l-92.15,99.3a8.53,8.53,0,0,1-6.24,2.7Z"/><path d="M165.27,347a8,8,0,0,1,5.86,13.43L79,459.73a8,8,0,0,1-11.73-10.89l92.15-99.29a8,8,0,0,1,5.87-2.55m0-1a9,9,0,0,0-6.6,2.87L66.52,448.16a9,9,0,0,0,13.19,12.25l92.15-99.3a9,9,0,0,0-.47-12.72h0a9,9,0,0,0-6.12-2.39Z"/><path class="cls-1" d="M418.87,144.91a8.49,8.49,0,0,1-6.23-14.27L426,116.21a8.5,8.5,0,0,1,12.46,11.56L425.1,142.2a8.52,8.52,0,0,1-6.23,2.71Z"/><path d="M432.27,114a8,8,0,0,1,5.86,13.43l-13.39,14.43A8,8,0,0,1,413,131l13.39-14.43a8,8,0,0,1,5.87-2.55m0-1a9,9,0,0,0-6.6,2.87L412.28,130.3a9,9,0,0,0,.47,12.72h0a9,9,0,0,0,12.72-.48l13.39-14.43a9,9,0,0,0-.47-12.72h0a9,9,0,0,0-6.12-2.39Z"/><path class="cls-1" d="M457.13,103.72a8.46,8.46,0,0,1-8.48-8.18,8.38,8.38,0,0,1,2.25-6.09L478,60.21A8.5,8.5,0,0,1,490.5,71.77L463.36,101a8.52,8.52,0,0,1-6.23,2.71Z"/><path d="M484.27,58a8,8,0,0,1,5.86,13.43L463,100.67a8,8,0,0,1-11.73-10.88L478.4,60.55A8,8,0,0,1,484.27,58m0-1a9,9,0,0,0-6.6,2.87L450.53,89.11a9,9,0,0,0,.48,12.71,9,9,0,0,0,12.72-.47l27.13-29.24a9,9,0,0,0-.47-12.72h0A9,9,0,0,0,484.27,57Z"/><path class="cls-1" d="M408.87,44.91a8.49,8.49,0,0,1-6.23-14.27L416,16.21A8.5,8.5,0,0,1,428.5,27.77L415.1,42.2a8.52,8.52,0,0,1-6.23,2.71Z"/><path d="M422.27,14a8,8,0,0,1,5.86,13.43L414.74,41.86a8,8,0,0,1-11.31.42A8,8,0,0,1,403,31L416.4,16.55A8,8,0,0,1,422.27,14m0-1a9,9,0,0,0-6.6,2.87L402.28,30.3a9,9,0,0,0,13.19,12.24l13.39-14.43A9,9,0,0,0,422.27,13Z"/><path class="cls-1" d="M9,430.37A8.5,8.5,0,0,1,2.76,416.1L217,185.21a8.5,8.5,0,0,1,12.46,11.56L15.22,427.66A8.54,8.54,0,0,1,9,430.37Z"/><path d="M223.27,183a8,8,0,0,1,5.86,13.43L14.85,427.32a8,8,0,0,1-11.3.42,8,8,0,0,1-.42-11.3L217.4,185.55a8,8,0,0,1,5.87-2.55m0-1a9,9,0,0,0-6.6,2.87L2.39,415.76A9,9,0,0,0,15.59,428L229.86,197.11a9,9,0,0,0-.47-12.72h0a9,9,0,0,0-6.12-2.39Z"/><path class="cls-1" d="M244.87,175.91a8.49,8.49,0,0,1-6.23-14.27L252,147.21a8.5,8.5,0,0,1,12.46,11.56L251.1,173.2a8.52,8.52,0,0,1-6.23,2.71Z"/><path d="M258.27,145a8,8,0,0,1,5.86,13.43l-13.39,14.43A8,8,0,0,1,239,162l13.39-14.43a8,8,0,0,1,5.87-2.55m0-1a9,9,0,0,0-6.6,2.87L238.28,161.3a9,9,0,0,0,.47,12.72h0a9,9,0,0,0,12.72-.48l13.39-14.43a9,9,0,0,0-.47-12.72h0a9,9,0,0,0-6.12-2.39Z"/><path class="cls-1" d="M283.13,134.72a8.46,8.46,0,0,1-8.48-8.18,8.38,8.38,0,0,1,2.25-6.09L304,91.21a8.5,8.5,0,0,1,12.46,11.56L289.36,132a8.52,8.52,0,0,1-6.23,2.71Z"/><path d="M310.27,89a8,8,0,0,1,5.86,13.43L289,131.67a8,8,0,0,1-11.73-10.88L304.4,91.55A8,8,0,0,1,310.27,89m0-1a9,9,0,0,0-6.6,2.87l-27.14,29.24a9,9,0,0,0,.48,12.71h0a9,9,0,0,0,12.72-.47l27.13-29.24a9,9,0,0,0-.47-12.72h0A9,9,0,0,0,310.27,88Z"/><path class="cls-1" d="M103,284.37a8.5,8.5,0,0,1-6.22-14.27L311,39.21A8.5,8.5,0,0,1,323.5,50.77L109.22,281.66A8.54,8.54,0,0,1,103,284.37Z"/><path d="M317.27,37a8,8,0,0,1,5.86,13.43L108.85,281.32a8,8,0,0,1-11.3.42,8,8,0,0,1-.42-11.3L311.4,39.55A8,8,0,0,1,317.27,37m0-1a9,9,0,0,0-6.6,2.87L96.39,269.76A9,9,0,0,0,109.59,282L323.86,51.11a9,9,0,0,0-.47-12.72h0A9,9,0,0,0,317.27,36Z"/><path class="cls-1" d="M140.87,333.91a8.49,8.49,0,0,1-6.23-14.27L148,305.21a8.5,8.5,0,0,1,12.46,11.56L147.1,331.2a8.52,8.52,0,0,1-6.23,2.71Z"/><path d="M154.27,303a8,8,0,0,1,5.86,13.43l-13.39,14.43a8,8,0,0,1-11.31.42A8,8,0,0,1,135,320l13.39-14.43a8,8,0,0,1,5.87-2.55m0-1a9,9,0,0,0-6.6,2.87L134.28,319.3a9,9,0,0,0,.47,12.72h0a9,9,0,0,0,12.72-.48l13.39-14.43a9,9,0,0,0-.47-12.72h0a9,9,0,0,0-6.12-2.39Z"/><path class="cls-1" d="M92.13,386.72a8.49,8.49,0,0,1-6.23-14.27L113,343.21a8.5,8.5,0,0,1,12.46,11.56L98.36,384a8.53,8.53,0,0,1-6.23,2.71Z"/><path d="M119.27,341a8,8,0,0,1,5.86,13.43L98,383.67a8,8,0,0,1-11.73-10.88l27.13-29.24a8,8,0,0,1,5.87-2.55m0-1a9,9,0,0,0-6.6,2.87L85.53,372.11A9,9,0,0,0,86,384.82h0a9,9,0,0,0,12.72-.47l27.13-29.24a9,9,0,0,0-.47-12.72h0a9,9,0,0,0-6.12-2.39Z"/></g></g></svg>