<svg xmlns="http://www.w3.org/2000/svg" viewBox="0 0 495.26 463.27"><defs><style>.cls-1{fill:#fff;}</style></defs><title>lines</title><g id="Layer_2" data-name="Layer 2"><g id="Layer_1-2" data-name="Layer 1"><path class="cls-1" d="M175,294.37a6.5,6.5,0,0,1-4.76-10.91L384.5,52.57a6.48,6.48,0,0,1,11.25,4.18A6.44,6.44,0,0,1,394,61.41L179.75,292.3a6.49,6.49,0,0,1-4.77,2.07Z"/><path d="M389.27,53a4,4,0,0,1,2.93,6.71L177.92,290.6a4,4,0,0,1-5.86-5.44L386.33,54.27A4,4,0,0,1,389.27,53m0-5a9,9,0,0,0-6.6,2.87L168.39,281.76A9,9,0,0,0,181.59,294L395.86,63.11a9,9,0,0,0-.47-12.72h0A9,9,0,0,0,389.27,48Z"/><path class="cls-1" d="M272,246.37a6.5,6.5,0,0,1-4.76-10.91L481.5,4.57a6.48,6.48,0,0,1,11.25,4.18A6.44,6.44,0,0,1,491,13.41L276.75,244.3a6.49,6.49,0,0,1-4.77,2.07Z"/><path d="M486.27,5a4,4,0,0,1,2.93,6.71L274.92,242.6a4,4,0,0,1-5.86-5.44L483.33,6.27A4,4,0,0,1,486.27,5m0-5a9,9,0,0,0-6.6,2.87L265.39,233.76A9,9,0,0,0,278.59,246L492.86,15.11a9,9,0,0,0-.47-12.72h0A9,9,0,0,0,486.27,0Z"/><path class="cls-1" d="M183,397.37a6.5,6.5,0,0,1-4.76-10.91L392.5,155.57a6.48,6.48,0,0,1,11.25,4.18,6.44,6.44,0,0,1-1.72,4.66L187.75,395.3a6.49,6.49,0,0,1-4.77,2.07Z"/><path d="M397.27,156a4,4,0,0,1,2.93,6.71L185.92,393.6a4,4,0,0,1-5.86-5.44L394.33,157.27a4,4,0,0,1,2.94-1.27m0-5a9,9,0,0,0-6.6,2.87L176.39,384.76A9,9,0,0,0,189.59,397L403.86,166.11a9,9,0,0,0-.47-12.72h0a9,9,0,0,0-6.12-2.39Z"/><path class="cls-1" d="M236.87,283.91A6.48,6.48,0,0,1,232.11,273l13.39-14.43a6.48,6.48,0,0,1,11.25,4.18,6.44,6.44,0,0,1-1.72,4.66l-13.39,14.43a6.5,6.5,0,0,1-4.77,2.07Z"/><path d="M250.27,259a4,4,0,0,1,2.93,6.71l-13.39,14.43a4,4,0,0,1-5.87-5.44l13.39-14.43a4,4,0,0,1,2.94-1.27m0-5a9,9,0,0,0-6.6,2.87L230.28,271.3a9,9,0,0,0,.47,12.72h0a9,9,0,0,0,12.72-.48l13.39-14.43a9,9,0,0,0-.47-12.72h0a9,9,0,0,0-6.12-2.39Z"/><path class="cls-1" d="M188.13,336.72a6.49,6.49,0,0,1-4.76-10.91l27.13-29.24a6.48,6.48,0,0,1,11.25,4.18,6.44,6.44,0,0,1-1.72,4.66L192.9,334.65a6.54,6.54,0,0,1-4.77,2.07Z"/><path d="M215.27,297a4,4,0,0,1,2.93,6.71L191.06,333a4,4,0,0,1-2.93,1.27,4,4,0,0,1-2.93-6.71l27.13-29.24a4,4,0,0,1,2.94-1.27m0-5a9,9,0,0,0-6.6,2.87l-27.14,29.24a9,9,0,0,0,.48,12.71,9,9,0,0,0,12.72-.47l27.13-29.24a9,9,0,0,0-.47-12.72h0a9,9,0,0,0-6.12-2.39Z"/><path class="cls-1" d="M73.11,460.77a6.5,6.5,0,0,1-4.76-10.91l92.15-99.29a6.48,6.48,0,0,1,11.25,4.18,6.44,6.44,0,0,1-1.72,4.66l-92.15,99.3a6.53,6.53,0,0,1-4.77,2.06Z"/><path d="M165.27,351a4,4,0,0,1,2.93,6.71L76.05,457a4,4,0,0,1-5.87-5.45l92.15-99.29a4,4,0,0,1,2.94-1.27m0-5a9,9,0,0,0-6.6,2.87L66.52,448.16A9,9,0,0,0,67,460.88h0a9,9,0,0,0,12.72-.47l92.15-99.3a9,9,0,0,0-.47-12.72h0a9,9,0,0,0-6.12-2.39Z"/><path class="cls-1" d="M418.87,142.91A6.49,6.49,0,0,1,414.11,132l13.39-14.43a6.48,6.48,0,0,1,11.25,4.18,6.44,6.44,0,0,1-1.72,4.66l-13.39,14.43a6.5,6.5,0,0,1-4.77,2.07Z"/><path d="M432.27,118a4,4,0,0,1,2.93,6.71l-13.39,14.43a4,4,0,0,1-5.87-5.44l13.39-14.43a4,4,0,0,1,2.94-1.27m0-5a9,9,0,0,0-6.6,2.87L412.28,130.3a9,9,0,0,0,.47,12.72h0a9,9,0,0,0,12.72-.48l13.39-14.43a9,9,0,0,0-.47-12.72h0a9,9,0,0,0-6.12-2.39Z"/><path class="cls-1" d="M457.13,101.72a6.49,6.49,0,0,1-4.42-1.73,6.52,6.52,0,0,1-.34-9.18L479.5,61.57a6.48,6.48,0,0,1,11.25,4.18A6.44,6.44,0,0,1,489,70.41L461.9,99.65a6.54,6.54,0,0,1-4.77,2.07Z"/><path d="M484.27,62a4,4,0,0,1,2.93,6.71L460.06,98a4,4,0,0,1-2.93,1.27,4,4,0,0,1-2.72-1.06,4,4,0,0,1-.21-5.65l27.13-29.24A4,4,0,0,1,484.27,62m0-5a9,9,0,0,0-6.6,2.87L450.53,89.11a9,9,0,0,0,.48,12.71,9,9,0,0,0,12.72-.47l27.13-29.24a9,9,0,0,0-.47-12.72h0A9,9,0,0,0,484.27,57Z"/><path class="cls-1" d="M408.87,42.91A6.49,6.49,0,0,1,404.11,32L417.5,17.57a6.48,6.48,0,0,1,11.25,4.18A6.44,6.44,0,0,1,427,26.41L413.64,40.84a6.5,6.5,0,0,1-4.77,2.07Z"/><path d="M422.27,18a4,4,0,0,1,2.93,6.71L411.81,39.14a4,4,0,0,1-5.87-5.44l13.39-14.43A4,4,0,0,1,422.27,18m0-5a9,9,0,0,0-6.6,2.87L402.28,30.3a9,9,0,0,0,13.19,12.24l13.39-14.43A9,9,0,0,0,422.27,13Z"/><path class="cls-1" d="M9,428.37a6.5,6.5,0,0,1-4.76-10.91L218.5,186.57a6.48,6.48,0,0,1,11.25,4.18,6.44,6.44,0,0,1-1.72,4.66L13.75,426.3A6.49,6.49,0,0,1,9,428.37Z"/><path d="M223.27,187a4,4,0,0,1,2.93,6.71L11.92,424.6a4,4,0,0,1-5.86-5.44L220.33,188.27a4,4,0,0,1,2.94-1.27m0-5a9,9,0,0,0-6.6,2.87L2.39,415.76A9,9,0,0,0,15.59,428L229.86,197.11A9,9,0,0,0,223.27,182Z"/><path class="cls-1" d="M244.87,173.91A6.49,6.49,0,0,1,240.11,163l13.39-14.43a6.48,6.48,0,0,1,11.25,4.18,6.44,6.44,0,0,1-1.72,4.66l-13.39,14.43a6.5,6.5,0,0,1-4.77,2.07Z"/><path d="M258.27,149a4,4,0,0,1,2.93,6.71l-13.39,14.43a4,4,0,0,1-5.87-5.44l13.39-14.43a4,4,0,0,1,2.94-1.27m0-5a9,9,0,0,0-6.6,2.87L238.28,161.3a9,9,0,0,0,.47,12.72h0a9,9,0,0,0,12.72-.48l13.39-14.43a9,9,0,0,0-.47-12.72h0a9,9,0,0,0-6.12-2.39Z"/><path class="cls-1" d="M283.13,132.72a6.49,6.49,0,0,1-4.42-1.73,6.52,6.52,0,0,1-.34-9.18L305.5,92.57a6.48,6.48,0,0,1,11.25,4.18,6.44,6.44,0,0,1-1.72,4.66L287.9,130.65a6.54,6.54,0,0,1-4.77,2.07Z"/><path d="M310.27,93a4,4,0,0,1,2.93,6.71L286.06,129a4,4,0,0,1-2.93,1.27,4,4,0,0,1-2.72-1.06,4,4,0,0,1-.21-5.65l27.13-29.24A4,4,0,0,1,310.27,93m0-5a9,9,0,0,0-6.6,2.87l-27.14,29.24a9,9,0,0,0,.48,12.71h0a9,9,0,0,0,12.72-.47l27.13-29.24a9,9,0,0,0-.47-12.72h0A9,9,0,0,0,310.27,88Z"/><path class="cls-1" d="M103,282.37a6.5,6.5,0,0,1-4.76-10.91L312.5,40.57a6.48,6.48,0,0,1,11.25,4.18A6.44,6.44,0,0,1,322,49.41L107.75,280.3a6.49,6.49,0,0,1-4.77,2.07Z"/><path d="M317.27,41a4,4,0,0,1,2.93,6.71L105.92,278.6a4,4,0,0,1-5.86-5.44L314.33,42.27A4,4,0,0,1,317.27,41m0-5a9,9,0,0,0-6.6,2.87L96.39,269.76A9,9,0,0,0,109.59,282L323.86,51.11a9,9,0,0,0-.47-12.72h0A9,9,0,0,0,317.27,36Z"/><path class="cls-1" d="M140.87,331.91A6.48,6.48,0,0,1,136.11,321l13.39-14.43a6.48,6.48,0,0,1,11.25,4.18,6.44,6.44,0,0,1-1.72,4.66l-13.39,14.43a6.5,6.5,0,0,1-4.77,2.07Z"/><path d="M154.27,307a4,4,0,0,1,2.93,6.71l-13.39,14.43a4,4,0,0,1-5.87-5.44l13.39-14.43a4,4,0,0,1,2.94-1.27m0-5a9,9,0,0,0-6.6,2.87L134.28,319.3a9,9,0,0,0,.47,12.72h0a9,9,0,0,0,12.72-.48l13.39-14.43a9,9,0,0,0-.47-12.72h0a9,9,0,0,0-6.12-2.39Z"/><path class="cls-1" d="M92.13,384.72a6.49,6.49,0,0,1-4.76-10.91l27.13-29.24a6.48,6.48,0,0,1,11.25,4.18,6.44,6.44,0,0,1-1.72,4.66L96.9,382.65a6.54,6.54,0,0,1-4.77,2.07Z"/><path d="M119.27,345a4,4,0,0,1,2.93,6.71L95.06,381a4,4,0,0,1-2.93,1.27,4,4,0,0,1-2.93-6.71l27.13-29.24a4,4,0,0,1,2.94-1.27m0-5a9,9,0,0,0-6.6,2.87L85.53,372.11A9,9,0,0,0,86,384.82h0a9,9,0,0,0,12.72-.47l27.13-29.24a9,9,0,0,0-.47-12.72h0a9,9,0,0,0-6.12-2.39Z"/></g></g></svg>