<svg xmlns="http://www.w3.org/2000/svg" viewBox="0 0 432 432"><title>logos-white-seperate-layers-black</title><g id="mens_fitness" data-name="mens fitness"><path d="M6.88,156.77H29.42l4.25,36.92.69.05L39,156.92H61.27v93.53H46.21V199.89l-.68,0c-1.81,16.78-3.62,33.57-5.46,50.6H25.5L20,198l-.52,0v52.81H6.88Z"/><path d="M399.52,251.5c-8.67-2.5-10.81-9.18-10.9-17.12-.05-5.3,0-10.61,0-16.2h15.13c0,4.59,0,9.12,0,13.64,0,2.64,1,4.12,3.85,4,2.07-.07,3.37-.93,3.39-3.08a128.6,128.6,0,0,0-.15-13,8.74,8.74,0,0,0-2.72-4.91c-4.31-4.15-8.82-8.08-13.35-12-3.65-3.15-5.92-7.08-6-11.85a231,231,0,0,1,.47-23.1c.66-7.59,5.07-11.4,12.65-11.89a81.83,81.83,0,0,1,11.4,0c7.08.55,11,4.33,12.28,11.32.19,1,.5,2.09.75,3.13v15.68H410.9c0-3.65,0-7.21,0-10.78,0-2.5-.9-3.86-3.64-3.82s-3.41,1.48-3.39,3.76c.16,14.41-1.47,10.73,8.16,19.55,1.6,1.47,3.19,3,4.88,4.32,4.19,3.36,7.78,7.15,9.39,12.45v27.44c-1.44,5.86-4.41,10.43-10.46,12.41Z"/><path d="M358.36,251.5c-8.32-2.68-10.68-9.05-10.57-17,.08-5.32,0-10.64,0-16.28h15c0,4.53.07,9,0,13.4-.06,2.59.68,4.19,3.6,4.23s3.75-1.65,3.71-4.17c-.25-17,2.07-12.33-9.87-23.06-12.65-11.38-12.65-10.18-12.43-27.93.06-4.88,0-9.84.83-14.61,1.13-6.38,5-9.54,11.54-10a88.39,88.39,0,0,1,12.71,0c6.38.49,10.62,4.18,11.41,10.58s.72,13,1,19.67H370c0-3.73,0-7.38,0-11,0-2.68-1.27-4-4.08-3.76-2,.17-3,1.17-3,3.1a77.3,77.3,0,0,0,.13,10.44,9.22,9.22,0,0,0,2.77,4.92c4.15,4,8.47,7.83,12.88,11.55a17.31,17.31,0,0,1,6.59,14.26c-.09,6.2,0,12.41,0,18.61,0,7.88-2.24,14.34-10.57,17Z"/><path d="M149.3,251.5c-7.57-2.29-10.53-7.83-10.63-15.28-.08-6,0-11.92,0-18.06h15c0,4.69.05,9.13,0,13.56,0,2.6.79,4.16,3.71,4.14s3.57-1.66,3.6-4c0-3.6.35-7.23-.12-10.76a11.51,11.51,0,0,0-2.89-6.21,151.92,151.92,0,0,0-12.37-11.13,18.24,18.24,0,0,1-7.08-15.06,17.46,17.46,0,0,0,0-2.61,21.07,21.07,0,0,1,6.26-18.87c1.47-1.48,1.49-4.8,1.45-7.26s.95-3.69,3.27-3.72a151,151,0,0,1,15.64.09c5.53.51,9.36,4.52,10.12,10.77s.68,12.57,1,19.18H160.7c0-3.61,0-7.36,0-11.12,0-2.65-1.2-3.74-3.82-3.57-2,.12-3.07,1-3.08,3a83.89,83.89,0,0,0,.14,10.76,9.16,9.16,0,0,0,2.83,4.87c4.33,4.13,8.86,8.05,13.38,12a16.32,16.32,0,0,1,5.9,12.92c0,6.31,0,12.63,0,18.94,0,7.93-2,14.63-10.47,17.45Z"/><path d="M312.25,250.69c-4.54,0-9,.09-13.4-.09-.64,0-1.61-1.26-1.78-2.07-2.91-14.26-5.71-28.54-8.55-42.82a3.18,3.18,0,0,0-1.06-1.88v46.62H274.68V157h15.57q4.23,17.75,8.49,35.58l.52,0V157h13Z"/><path d="M122.17,192.59V157h5.51v8l4.7.45-4.86,9.46a57.48,57.48,0,0,1,5.77,3.7,5,5,0,0,1,1.91,3.22c.11,22.2.09,44.4.08,66.6,0,.63-.12,1.26-.22,2.24-4.56,0-9,.07-13.41-.08-.6,0-1.56-1.06-1.69-1.76-2.87-14.6-5.64-29.21-8.43-43.82a9.86,9.86,0,0,0-1.25-3.6v49H97.4V157h15.65q4.26,17.81,8.51,35.63Z"/><path d="M316.18,156.87h28.49v16.37h-13v20h12.52v16.37H331.76v24.34H345v16.59H316.18Z"/><path d="M80.82,193.23H93.13v16.38H80.75v24.32H94v16.54H65.25V157h28.3v16.18H80.82Z"/><path d="M188.86,157h28V173.2h-12.6v20.67h11.88v16.76H204.21v39.86H188.86Z"/><path d="M271.81,157v16.15h-9.29v77.26H246.93V173.27h-9.24V157Z"/><path d="M234.6,250.53H219.7V156.94h14.9Z"/></g></svg>