<svg id="bodybuilding.com" xmlns="http://www.w3.org/2000/svg" viewBox="0 0 432 432"><title>logos-white-seperate-layers-black</title><path id="path60313" d="M418.83,312.51c.58,0,.91-.31.91-.74s-.33-.73-.91-.73h-1.09v1.47Zm-1.95-2.22h2c1,0,1.72.48,1.72,1.41a1.35,1.35,0,0,1-1,1.36l1.19,1.69h-1l-1.07-1.54h-.93v1.54h-.86v-4.46Zm5.61,2.32v0a3.86,3.86,0,0,0-3.89-3.9,3.9,3.9,0,0,0-3.9,3.93v0a3.9,3.9,0,1,0,7.79,0m-8.29,0v0a4.4,4.4,0,0,1,8.8,0v0a4.4,4.4,0,0,1-8.8,0"/><path id="path60321" d="M191.85,202.55l33.81-.09c14.39-.05,21.72,4.72,21.75,13.77,0,11.05-10.31,18.62-27.21,18.67l-37.09.09ZM353.4,131a383.26,383.26,0,0,0-48.1-8.44c-7.23-14.22-25.09-24.58-60-24.48l-73.44.2-8.33,31.21c-22.05,5.16-41.47,12.32-56.49,21.33-6.26,3.76-12.87,8.1-18.23,13.71S78.64,178,77.93,185.89c-.93,10.32,1.37,17,4.85,23.23a56.87,56.87,0,0,0,7.57,10.28c8.59,9.48,19.19,16.43,30.44,22.69,3.63,2,7.39,3.87,11.23,5.62l-7.11,26.66,91.61-.25c54.77-.14,80.19-23.34,80.11-53.75-.06-18.1-11.19-29.63-26.85-35.13,24.72-6.09,39.56-22.72,39.5-45.1A46.28,46.28,0,0,0,309,135c-5.72,0-11.31.12-16.65.32-11.64.45-23.76.81-35.63,2-2.61.25-5.2.54-7.76.82,8.26,1.74,11.91,6.09,11.93,12.19,0,11.06-9.31,17.87-26.71,17.92l-33.07.09,6.11-23.62a263.8,263.8,0,0,0-46.8,14.41c-1.81.76-3.61,1.55-5.38,2.37l-19.76,74.07s0,0,0,0-.38,1.43-.88,3.28c-2.08-1.75-4.13-3.55-6.1-5.42-6.93-6.58-13.12-13.87-17.19-23.2-2.08-4.8-3.64-8.94-3-16.28,1-11.13,8.72-19.23,16.16-25.21a104.75,104.75,0,0,1,26-14.92c30-12.51,60.5-18.18,96.31-21.83,11.85-1.19,24-1.56,35.61-2,22.28-.85,48.81-.12,70.11,2.92,1.4.2,4.49.8,4.34,0,.31-1.17-2.17-1.66-3.21-1.91"/><path id="path60323" d="M30.47,310.66c3.45,0,5.3-1.34,5.3-3.53,0-1.59-1.25-2.59-4.2-2.59h-6l-1.6,6.12Zm-2.79,13.18c3.34,0,5.39-1.49,5.39-3.68,0-1.79-1.45-2.73-4.29-2.73h-6.7l-1.74,6.41Zm-9.49-27.06H32.72c9.54,0,12.64,3.93,12.64,8.36s-3,7.71-7.84,8.9c3.09,1.1,5.29,3.39,5.29,7,0,6-5,10.59-15.88,10.59H8.8Z"/><path id="path60325" d="M65.84,316.64c0-2.94-1.8-5.25-5.15-5.25-3.92,0-6.43,3.82-6.43,7.32,0,3,1.79,5.26,5.15,5.26,3.92,0,6.43-3.82,6.43-7.33m-21,2.91A16.46,16.46,0,0,1,61.33,303.2c8.23,0,13.9,5.49,13.9,12.61a16.47,16.47,0,0,1-16.46,16.35c-8.23,0-13.9-5.49-13.9-12.61"/><path id="path60327" d="M86.89,323.49a9.52,9.52,0,0,0,6.71-2.27,7.07,7.07,0,0,0,2-4.73,4.27,4.27,0,0,0-1.16-3.23c-.87-.87-2.27-1.39-4.51-1.39H88.37l-3.11,11.62Zm-5.67-19.74h9.91c5.43,0,8.83,1.48,10.94,3.58a10.94,10.94,0,0,1,3,8.16,15.23,15.23,0,0,1-4.6,11c-3.35,3.34-8.18,5.13-14.65,5.13H73.71l7.51-27.85Z"/><path id="path60329" d="M110.14,321l-5.47-17.23h9.83l2.27,9.31,7.27-9.31h11.07l-15.9,18.38-2.56,9.47h-9.34L110.14,321Z"/><path id="path60331" d="M146.41,314.69c2.4,0,3.48-1.07,3.48-2.26S149,310.8,147,310.8h-3.87l-1,3.89Zm-2.47,9.87c2.27,0,3.63-1,3.63-2.38,0-1.2-1-1.76-3-1.76h-4l-1.12,4.14Zm-8-20.81h12.38c8.59,0,10.67,3.15,10.67,6.57s-2.28,6.21-6.55,7.32a5.59,5.59,0,0,1,4.55,5.49c0,4.69-3.76,8.47-13.34,8.47H128.44Z"/><path id="path60333" d="M159.36,322.13a17.79,17.79,0,0,1,.6-4.49l3.75-13.89h9.51l-3.92,14.49a9.26,9.26,0,0,0-.32,2.18c0,2.31,1.36,3.51,3.84,3.51a4.16,4.16,0,0,0,3-1.16,8.44,8.44,0,0,0,2-4.06l4-15h9.5l-4.43,16.4a18,18,0,0,1-4.4,8.35c-2.63,2.63-6.63,3.66-11.06,3.66-7.87,0-12.1-3.74-12.1-10"/><path id="path60335" d="M194.23,303.75h9.35l-7.51,27.85h-9.35Z"/><path id="path60337" d="M206.69,303.75H216l-5.35,19.9h12.74l-2.16,8H199.18l7.51-27.85Z"/><path id="path60339" d="M236.69,323.49a9.52,9.52,0,0,0,6.71-2.27,7.07,7.07,0,0,0,2-4.73,4.27,4.27,0,0,0-1.16-3.23c-.88-.87-2.27-1.39-4.51-1.39h-1.56l-3.12,11.62ZM231,303.75h9.91c5.43,0,8.83,1.48,10.94,3.58a10.94,10.94,0,0,1,3,8.16,15.23,15.23,0,0,1-4.6,11c-3.35,3.34-8.19,5.13-14.66,5.13H223.51L231,303.75Z"/><path id="path60341" d="M260.26,303.75h9.35L262.1,331.6h-9.35Z"/><path id="path60343" d="M272.72,303.75h8.75L287.82,317l3.6-13.29h9.27l-7.52,27.85h-8.3l-6.63-13.84-3.76,13.84h-9.27l7.51-27.85Z"/><path id="path60345" d="M298.61,319.79c0-9.11,7.19-16.63,18.45-16.63,5.28,0,9.79,2.26,11.71,4.61l-5.83,6a9.84,9.84,0,0,0-6.48-2.51c-5.31,0-8.46,3.62-8.46,8.12,0,3.46,2.51,5.17,5.43,5.17a6,6,0,0,0,2.43-.44l.92-3h-4.59l1.52-6h13.46l-4,14.21a21.91,21.91,0,0,1-10.74,2.86c-6.95,0-13.82-3.66-13.82-12.41"/><path id="path60347" d="M328.25,324.39h7.26l-1.94,7.16h-7.26l1.94-7.16Z"/><path id="path60349" d="M336.56,323.12c0-5.7,4.4-12.62,13.45-12.62,4.53,0,7.74,2.38,8.6,6.08l-6.26,2.72a3.17,3.17,0,0,0-3.26-2.53c-3.15,0-5.19,2.86-5.19,5.72a3.25,3.25,0,0,0,3.3,3.59,5.13,5.13,0,0,0,4.07-2.18l4.86,3.82a11.43,11.43,0,0,1-9.62,4.57c-5.88,0-9.95-3.56-9.95-9.17"/><path id="path60351" d="M373.86,320.38a3.66,3.66,0,0,0-3.86-3.94c-2.94,0-4.83,2.86-4.83,5.49a3.66,3.66,0,0,0,3.87,3.94c2.93,0,4.82-2.86,4.82-5.49m-15.73,2.18a12.35,12.35,0,0,1,12.35-12.27c6.17,0,10.43,4.12,10.43,9.46A12.36,12.36,0,0,1,368.56,332c-6.17,0-10.43-4.12-10.43-9.46"/><path id="path60353" d="M386.14,310.71h6.93l2.51,7.34,6.48-7.34h7.7l-5.64,20.89h-7l2.79-10.36-6.83,7.44H393l-2.82-7.44-2.79,10.36h-6.86l5.63-20.89Z"/></svg>