<svg xmlns="http://www.w3.org/2000/svg" viewBox="0 0 432 432"><title>logos-white-seperate-layers-black</title><g id="muscle_and_fitness_logo" data-name="muscle and fitness logo"><path d="M63.59,223.19a3.27,3.27,0,0,1,3.24-2.61c10.65.1,21.3,0,32,.1,2.08,0,2.92-.65,3.29-2.63.5-2.71,1.27-5.38,1.92-8.07.57-2.35,1.13-4.7,1.74-7.22h-61c-.68,2.74-1.42,5.4-2,8.1-.35,1.62,0,2.3-2.83,2.3a55.85,55.85,0,0,0-5.93,0,6.59,6.59,0,0,0-3.11,1.16,42.76,42.76,0,0,0-4.43,4c-1.32-2.27-2.74-4.12-3.5-6.22a8.75,8.75,0,0,1,.12-4.56c.37-1.74,2.05-1.72,3.29-1.34.58.18.88,1.46,1.18,2.28a3.51,3.51,0,0,1,0,1.29h9.18v-9.6c3.12.66,4.53-1.68,6-4.22,4.27-7.67,14.78-25.63,15.24-26.36.14-.22-.14.86-.29,1.49-2.35,9.59-4.71,19.19-7.12,29.05,2.68,0,5,0,7.26,0,2.13,0,5.1.22,6.41-.85s1.3-3.5,1.83-5.62q5.29-21,10.53-42.11h-20a2.76,2.76,0,0,0-2.3,1.23c-.6.92-1.11,1.83-1.67,2.86-3.3,6.11-6.47,12.3-9.69,18.45A5.15,5.15,0,0,1,41,176.24c-.19-2.76-.4-5.51-.55-8.27-.23-4.26-.3-8.53-.71-12.78-.12-1.24-.33-3.6-1.75-3.6h-19q-3.61,14.85-7.24,29.69c-1.52,6.2-3.07,12.4-4.68,18.88h10.4a18.53,18.53,0,0,0-4.56,13.62c-.12.14-.2.34-.32.36-5.13,1.06-7.59,4.44-8.26,9.41a11.12,11.12,0,0,1-.56,1.75v4.75c1.44,3.24,4,4.47,7.43,4.27a20.44,20.44,0,0,1,3.32,0,9.25,9.25,0,0,0,9-3.83c2,4.22,5.58,4.06,9.23,3.82,1.24-.08,2.5,0,3.81,0a4.4,4.4,0,0,1,.11,1.13q-5.72,23-11.45,46H49.36c2.08-8.61,4.2-17.2,6.19-25.82.44-1.88,1.21-2.51,3.19-2.47,7.05.14,14.1.08,21.15,0,.75,0,2-.51,2.17-1,1.42-5.08,2.64-10.21,4-15.69H60.4C61.54,231.77,62.68,227.5,63.59,223.19ZM18.23,226c-1.34,1.27-4.49,1.53-4.59.42a11.38,11.38,0,0,1,1.11-5.37c.36-.81,1.77-.86,2.49.4.62,1.08,1.34,2.1,2.05,3.19A10.74,10.74,0,0,1,18.23,226ZM21,198.9c2.31-9.36,4.59-18.64,6.88-27.92.62-2,.35-2,.62-2,.68,9.24,1.55,20.54,2.25,30Zm16,34.76-6.53-9.4C34.15,220.87,41.83,214,42,214.06,40.46,220.23,38.71,226.85,37,233.66Z"/><path d="M418.34,203c-9.82-.12-19.64-.11-29.46,0a14.41,14.41,0,0,0-12.39,6.77,37.78,37.78,0,0,0-6.42,20.79c-.09,5.1,2.37,8.28,7.21,10a29.46,29.46,0,0,0,3.42,1c6.42,1.41,12.83,2.78,19.25,4.17,1.57.35,3.42.3,3.38,2.76-.05,3.19-1.53,6.59-3.47,6.65-5.13.17-10.27.05-15.41-.08-1.56,0-2.14-1.21-1.88-2.71s.57-2.93.88-4.52c-.65-.06-1.27-.15-1.89-.15-5.07,0-10.14,0-15.21.07-.51,0-1.31.85-1.45,1.43a65.79,65.79,0,0,0-1.93,9.27c-.73,7.22,2.43,11.34,9.29,11.52,11.08.29,22.17.19,33.25,0a13.17,13.17,0,0,0,9.93-4.91c4.47-5.15,6.57-11.34,7.59-17.9,1.66-10.64-1.09-14.42-11.67-16.62l-18.12-3.75c-2.85-.59-3.32-1.31-2.64-4.09a8.58,8.58,0,0,1,.94-2.91c.57-.81,1.58-1.79,2.42-1.82,4.27-.17,8.55-.11,12.82,0,1.9,0,2.92,1.05,2.62,3.1-.17,1.14-.26,2.29-.4,3.51h18.66c.56-2.67,1.1-5.21,1.63-7.75v-6.18C427.79,204.93,423.57,203.07,418.34,203Z"/><path d="M255.61,202.86c-5.74,0-11.27.1-16.8-.05-1.94-.05-2.55.72-2.95,2.42-2.37,10.16-4.83,20.3-7.27,30.45-.22.91-.55,1.8-.82,2.7a4,4,0,0,1-1.13-1.83c-3.19-9.27-6.35-18.55-9.56-27.81-1.49-4.28-3.36-5.72-7.88-5.83-4.83-.12-9.67.05-14.5-.1-1.78-.05-2.25.72-2.62,2.22q-7,28.44-14.09,56.87c-.65,2.63-1.24,5.28-1.92,8.18,5.94,0,11.48-.09,17,.05,1.91.05,2.57-.68,3-2.42,2.53-10.62,5.17-21.21,7.77-31.8.44-1.8.92-3.6,1.37-5.39h.52c.37.94.76,1.87,1.1,2.82l10.91,30.36c1.8,5,3.68,6.33,9,6.37,3.41,0,6.82-.07,10.22,0,1.66.05,2.48-.36,2.92-2.17,5.16-21.12,10.43-42.22,15.65-63.33A10.85,10.85,0,0,0,255.61,202.86Z"/><path d="M352.2,230.64c-6.27-1.31-12.55-2.57-18.83-3.87-1.54-.32-3.22-.43-3.17-2.73.08-3.27,1.55-6.14,3.59-6.2,4.27-.12,8.56-.12,12.83.07,2.36.1,2.9,1.07,2.59,3.52-.12,1-.2,2-.33,3.2,6,0,11.7,0,17.39-.06a2.08,2.08,0,0,0,1.5-1.33A120.46,120.46,0,0,0,368.83,211c0-3.29-1.91-5.68-5-6.82a15.77,15.77,0,0,0-5.07-1.12c-10.22-.11-20.44-.16-30.66,0a13.24,13.24,0,0,0-11,5.71,23.56,23.56,0,0,0-3.59,6.11c-1.45,4.49-3,9.08-3.42,13.73-.68,7.69,2.32,11.13,9.92,12.8,6.8,1.49,13.62,2.89,20.42,4.35,2.68.58,3.17,1.34,2.57,4a10.91,10.91,0,0,1-1.08,3.37c-.52.85-1.55,1.94-2.38,2-5,.15-10,.11-14.95-.05-2.05-.06-2.62-1.48-2.17-3.37.29-1.22.55-2.44.92-4.07H313c-8.56,0-8.56,0-10,8.52-1.59,9.36,1.77,13.75,11.1,13.94,9.9.2,19.81.08,29.72,0A15.22,15.22,0,0,0,357,262.83a37,37,0,0,0,6.11-17.53C364,236.06,361.2,232.53,352.2,230.64Z"/><path d="M269.9,244.9c.29-1.4,1-1.75,2.29-1.74,5.23.06,10.46.05,15.69,0,2.2,0,5,.66,6.43-.44s1.45-4,2-6.13c.66-2.49,1.25-5,1.94-7.82H274.31a4.58,4.58,0,0,1-.1-.89q.72-3.12,1.45-6.24c.82-3.41.83-3.41,4.29-3.41,9.43,0,18.86,0,28.29-.05.75,0,2-.51,2.17-1,1.3-4.62,2.41-9.3,3.62-14.18-1.07,0-1.84-.11-2.62-.11-16.4,0-32.8,0-49.21-.06-2,0-2.66.68-3.11,2.51-4,16.51-8.17,33-12.26,49.51-1.24,5-2.43,9.94-3.69,15.11h54.29c1.23-5,2.45-9.94,3.74-15.16H267.48C268.34,251.31,269.21,248.13,269.9,244.9Z"/><path d="M186.64,218.46c1.31-5.19,2.57-10.24,3.92-15.6h-28.2c-9.83,0-19.65,0-29.48,0-.82,0-2.22.38-2.36.87-1.34,4.76-2.48,9.58-3.75,14.72h19.37c-4.26,17.27-8.44,34.21-12.72,51.59,6.4,0,12.41-.05,18.41,0,1.64,0,2.3-.46,2.71-2.13,3.83-15.75,7.81-31.46,11.63-47.22.45-1.85,1.18-2.38,3-2.34C175,218.53,180.73,218.46,186.64,218.46Z"/><path d="M109.06,203c-.54,0-1.36.94-1.55,1.59-.85,3-1.52,6-2.27,9-4.63,18.71-9.27,37.42-14,56.58,6.27,0,12.28-.09,18.28.05,1.92.05,2.55-.72,3-2.41Q119.54,239,126.7,210.2c.57-2.34,1.09-4.68,1.7-7.32C121.7,202.88,115.38,202.84,109.06,203Z"/><path d="M70,191.34c-.51,5,1.59,7.72,6.46,8.23A138.61,138.61,0,0,0,93.5,200c7.69-.15,11.14-2.61,13.3-10,3-10.24,5.47-20.62,8.28-31.35-3.92,0-7.32.09-10.71,0-1.67-.06-2.32.5-2.7,2.13-2,8.31-4.06,16.59-6.15,24.87-.93,3.66-1.51,4.05-5.25,4.05h-3.8c-3.28,0-3.89-.69-3.16-3.83,1.55-6.54,3.19-13.06,4.79-19.58.59-2.42,1.16-4.85,1.82-7.6-3.86,0-7.33.07-10.8,0-1.51,0-2,.56-2.35,2-1.29,5.54-2.8,11-4,16.59A119.42,119.42,0,0,0,70,191.34Z"/><path d="M120.3,182.48c3.86.85,7.74,1.59,11.58,2.53.81.2,2,1,2.1,1.67.5,2.51-1.13,4.26-3.67,4.29-1.66,0-3.33,0-5,0-4.22,0-4.21,0-3.77-4.16,0-.12-.13-.25-.32-.59h-5.08c-6.23,0-6.8.57-7,6.88v.48c0,4.34,1.7,6.35,6,6.45,6.49.14,13,.07,19.48.05a9.15,9.15,0,0,0,7.92-4.46,22.9,22.9,0,0,0,3.8-11.82c.2-4.71-1.45-6.83-6.08-7.86-3.85-.86-7.73-1.63-11.61-2.41-2.81-.57-3.34-1.27-2.21-3.81a4,4,0,0,1,2.53-1.89,21.06,21.06,0,0,1,4.5-.09c4.22,0,4.22,0,4.29,4.16h11.33c.31-2,.75-3.88.88-5.82.32-4.9-1.59-7.17-6.5-7.32-6.25-.19-12.5-.1-18.76,0a8.6,8.6,0,0,0-7,3.79,22,22,0,0,0-4.11,11.23C113.1,179.18,114.78,181.27,120.3,182.48Z"/><path d="M249.82,200.12a1.5,1.5,0,0,0,1.14-.85c.77-2.78,1.44-5.58,2.23-8.75H232.35c.5-2,1-3.66,1.32-5.36.24-1.41.94-1.77,2.27-1.75,3.8.06,7.6.09,11.4,0a2.67,2.67,0,0,0,2.07-1.22c.79-2.36,1.28-4.83,2-7.57h-15c.38-1.67.8-3,1-4.4.21-1.73,1.11-2.1,2.72-2.06,4.36.11,8.72,0,13.08,0h5.58c.75-3,1.42-5.7,2.07-8.39a3.66,3.66,0,0,0,0-.83,2.32,2.32,0,0,0-.58-.22c-10.46,0-20.91-.08-31.37,0-.58,0-1.5,1-1.69,1.69-1.63,6.12-3.13,12.26-4.66,18.4-1.75,7-3.47,14.07-5.27,21.35C228.29,200.16,239.05,200.17,249.82,200.12Z"/><path d="M158.45,200.11c4.66.17,9.34.1,14-.07,6.93-.26,12.88-8,12.66-16.43H173.81c-3.07,7.91-1.66,6.95-9.3,7-4,0-4.58-.53-3.82-4.42.9-4.57,2-9.1,3.34-13.57,1.23-4.24,1.74-4.45,6.24-4.45h3.8c1.71,0,2.46.89,2.29,2.56-.13,1.32-.27,2.63-.45,4.25h4.17c8.41,0,8.66-.27,8.16-8.77-.29-5-2.34-7.2-7.37-7.42-4.74-.2-9.5,0-14.24-.18-6.14-.28-10.27,2.62-13,7.82A51.41,51.41,0,0,0,147.91,189C147.69,197.19,150.26,199.83,158.45,200.11Z"/><path d="M183.81,199.74c.35.2.42.27.49.27q15,.09,29.91.13c.45,0,1.2-.38,1.3-.72.8-2.84,1.47-5.7,2.25-8.81h-19c2.64-10.71,5.23-21.19,7.88-32-3.66,0-7.13.1-10.6,0-1.72-.07-2.27.62-2.65,2.19-2.3,9.6-4.72,19.18-7.09,28.77C185.48,193,184.63,196.41,183.81,199.74Z"/></g></svg>