<svg xmlns="http://www.w3.org/2000/svg" viewBox="0 0 432 432"><title>logos-white-seperate-layers-black</title><g id="train_magazine" data-name="train magazine"><polygon points="319.83 141.09 287.97 141.09 263.28 255.09 295.14 255.09 319.83 141.09"/><path d="M26.2,236.84h0s0,.27-.12.71l-.29,1.38c-.8,3.19-3,8.93-8.46,8.93-.4,5.29-.59,7.31-.59,7.31l5.55-.09v0H54.1L73,168H98.12l5.12-26.94H20.33L15.2,168H41.1Z"/><path d="M333.1,255.09l9.23-42.62,8.51,42.62h34.69l21.33-98.51c.95-3.26,3.21-8.15,8.25-8.15.39-5.28.59-7.3.59-7.3l-5.51.09,0-.13H378.36l-10.31,47.65-10.27-47.65H325.93l-24.69,114Z"/><path d="M117.1,255.09l18.83-87,16.24.19a2.76,2.76,0,0,1,2.47,1.19,4.21,4.21,0,0,1,.51,3.7l-2.48,7.84a16.76,16.76,0,0,1-6,8.47,13,13,0,0,1-9.55,2.37s-2.74,14.09-5.48,26a39.86,39.86,0,0,1,5.29.33,7,7,0,0,1,6,7.92l-4.23,28.73h32.29c-.39-1,.19-8.22.19-8.22s2-8.41,4.5-24.46-5.67-17.8-5.67-17.8,12.72-3.72,17.22-30.91-23.29-32.42-23.29-32.42h-54l-24.69,114Z"/><path d="M217.31,154.66h0l-45.1,100.43h31.86L224,210.74l-14.76,10.13,9.11-19.49-10.53-10.16,16.3-.18,9.3-17.74L235.16,191l21.64.41-20,10.82,1.09,16.88-9.59-8.71-.22,44.7h31.85l.56-114H211.05v9.26S219.39,149.7,217.31,154.66Z"/><polygon points="233.35 209.7 232.72 199.97 241.86 195.03 231.61 194.84 230.81 186.71 226.5 194.93 217.4 195.03 223.08 200.51 218.87 209.51 226.99 203.93 233.35 209.7"/><rect x="13.96" y="298.01" width="406.44" height="3.39"/><path d="M24.72,286.61C27.25,284.53,30,279.22,30,273a10,10,0,0,0-1.81-6.44C27,265,25.07,264,22.11,264a24.89,24.89,0,0,0-4.73.45l-4.56,24a20,20,0,0,0,4.43.46C20.49,288.94,22.7,288.29,24.72,286.61Zm-3.49-18.84a4,4,0,0,1,1-.09c2.34,0,3.07,2.43,3.07,4.8a20.93,20.93,0,0,1-2,9.16c-1.06,2.19-2.76,3.41-4.26,3.41a9,9,0,0,1-1.22-.12Z"/><path d="M38.45,266.08c-3.43,3.34-5.13,9.94-5.13,15,0,2.69.74,8.07,6.12,8.07a7.4,7.4,0,0,0,5.47-2.35c3.27-3.27,5-9.87,5-15.1,0-2.94-.67-7.87-6-7.87A7.55,7.55,0,0,0,38.45,266.08Zm6.71,5.21c0,2.69-1.08,10.64-3.51,13.08a2.26,2.26,0,0,1-1.53.74c-1.92,0-2.08-2.23-2.08-3.62,0-3.66,1.27-10.57,3.56-12.87a2.32,2.32,0,0,1,1.65-.79C45,267.83,45.16,269.73,45.16,271.29Z"/><path d="M64.58,281.59H64.5c-.19-2-.6-4.4-1.24-7.67l-1.89-9.82h-4.2l-4.71,24.73h3.93l1.24-6.57c.81-4.27,1.37-8.37,1.67-10.86h.07a52.61,52.61,0,0,0,1.26,8.22l2,9.21h3.92l4.72-24.73H67.32l-1.22,6.41C65.32,274.64,64.89,278.87,64.58,281.59Z"/><path d="M76,273a53.64,53.64,0,0,0,5.51-9.23l-4.15.36a61.81,61.81,0,0,1-4.13,9.2Z"/><polygon points="88.48 288.83 92.39 268.43 96.69 268.43 97.52 264.1 84.33 264.1 83.49 268.43 87.81 268.43 83.9 288.83 88.48 288.83"/><path d="M110.34,281.61c-.46,2.38-1.48,3.32-2.85,3.32a7.45,7.45,0,0,1-1.71-.15l-.73,4.1a9.2,9.2,0,0,0,2.23.25c4.12,0,6.54-1.72,7.69-7.67l3.31-17.36H113.7Z"/><path d="M128.14,264.1h-4.6l-2.91,15.3a22.19,22.19,0,0,0-.44,3.89c0,3.62,1.85,5.84,5.88,5.84,4.94,0,7.26-3.45,8.4-9.42l3-15.61h-4.59l-3.12,16.25c-.7,3.68-1.69,4.7-3.15,4.7-1.14,0-1.84-.74-1.84-2.16a14,14,0,0,1,.32-2.72Z"/><path d="M148.13,267.94a5.47,5.47,0,0,1,2.66.66l1.25-3.94a7.08,7.08,0,0,0-3.7-.78c-4.83,0-8.08,3.23-8.08,7.82a8.3,8.3,0,0,0,2.94,6c1.57,1.51,2.47,2.47,2.47,4.11A3.18,3.18,0,0,1,142.1,285a7,7,0,0,1-3.4-.87l-1.16,4a9.55,9.55,0,0,0,4.62.91c4.7,0,8.11-3,8.11-8.13a8.08,8.08,0,0,0-3-6c-2-1.75-2.45-2.67-2.45-3.86A3.07,3.07,0,0,1,148.13,267.94Z"/><polygon points="160.16 288.83 164.07 268.43 168.36 268.43 169.19 264.1 156 264.1 155.16 268.43 159.48 268.43 155.57 288.83 160.16 288.83"/><path d="M193.24,269.76a5.63,5.63,0,0,0-1.61-4.07c-1.29-1.28-3.36-1.7-5.48-1.7a28.58,28.58,0,0,0-4.92.45l-4.64,24.39h4.47l1.84-9.92h.76c1.55,0,2.18,1,2.18,4a50.52,50.52,0,0,0,.19,5.92h4.59a53.48,53.48,0,0,1-.4-6.7c-.06-2.77-.67-4.19-2-4.8v-.11A7.75,7.75,0,0,0,193.24,269.76Zm-8.56,5.62h-1l1.41-7.69a4.82,4.82,0,0,1,1.23-.12c1.72,0,2.26,1.42,2.26,2.71C188.54,272.89,187,275.38,184.68,275.38Z"/><polygon points="209.17 268.14 209.98 264.1 199.6 264.1 194.89 288.83 205.67 288.83 206.48 284.76 200.22 284.76 201.58 277.89 207.03 277.89 207.78 274.02 202.27 274.02 203.48 268.14 209.17 268.14"/><path d="M224.33,288.83l-.24-24.73h-5.34l-10,24.73h4.46l2.16-5.74H220l-.07,5.74Zm-7.87-9.12,2-5.48c.51-1.38,1.31-4.08,1.89-5.94h.09c-.05,1.85-.19,4.48-.24,6l-.11,5.46Z"/><path d="M237.73,264a25,25,0,0,0-4.74.45l-4.55,24a20,20,0,0,0,4.43.46c3.24,0,5.45-.65,7.47-2.33,2.52-2.08,5.31-7.39,5.31-13.66a10,10,0,0,0-1.82-6.44C242.63,265,240.69,264,237.73,264ZM239,281.64c-1.06,2.19-2.76,3.41-4.27,3.41a9,9,0,0,1-1.21-.12l3.34-17.16a3.88,3.88,0,0,1,1-.09c2.35,0,3.07,2.43,3.07,4.8A21.08,21.08,0,0,1,239,281.64Z"/><polygon points="254.91 288.83 259.49 288.83 264.22 264.1 259.63 264.1 254.91 288.83"/><polygon points="272.14 288.83 276.06 268.43 280.34 268.43 281.18 264.1 267.99 264.1 267.15 268.43 271.47 268.43 267.56 288.83 272.14 288.83"/><path d="M284.42,283.28l-4.89.37a67.62,67.62,0,0,1-4.34,9.78l3.37-.33A52.27,52.27,0,0,0,284.42,283.28Z"/><path d="M305,264.1h-4.6l-2.91,15.3a22.19,22.19,0,0,0-.44,3.89c0,3.62,1.85,5.84,5.88,5.84,4.94,0,7.26-3.45,8.4-9.42l3-15.61h-4.6l-3.11,16.25c-.7,3.68-1.7,4.7-3.15,4.7-1.14,0-1.84-.74-1.84-2.16a14,14,0,0,1,.32-2.72Z"/><path d="M325,267.94a5.47,5.47,0,0,1,2.66.66l1.25-3.94a7.08,7.08,0,0,0-3.7-.78c-4.83,0-8.08,3.23-8.08,7.82a8.3,8.3,0,0,0,2.94,6c1.57,1.51,2.46,2.47,2.46,4.11A3.17,3.17,0,0,1,319,285a7.08,7.08,0,0,1-3.41-.87l-1.15,4a9.55,9.55,0,0,0,4.62.91c4.7,0,8.11-3,8.11-8.13a8.08,8.08,0,0,0-3-6c-2-1.75-2.45-2.67-2.45-3.86A3.07,3.07,0,0,1,325,267.94Z"/><polygon points="344.52 268.14 345.33 264.1 334.96 264.1 330.24 288.83 341.02 288.83 341.83 284.76 335.57 284.76 336.94 277.89 342.39 277.89 343.14 274.02 337.63 274.02 338.83 268.14 344.52 268.14"/><polygon points="357.19 288.83 361.92 264.1 357.32 264.1 352.61 288.83 357.19 288.83"/><polygon points="369.84 288.83 373.75 268.43 378.04 268.43 378.88 264.1 365.68 264.1 364.85 268.43 369.17 268.43 365.25 288.83 369.84 288.83"/><polygon points="387.53 264.1 382.36 264.1 379.72 280.79 383.75 280.79 387.53 264.1"/><path d="M380.52,289.13a3.1,3.1,0,0,0,3-3.24,2.54,2.54,0,0,0-2.65-2.71,3.27,3.27,0,0,0-2.87,3.17A2.56,2.56,0,0,0,380.52,289.13Z"/></g></svg>