<svg xmlns="http://www.w3.org/2000/svg" viewBox="0 0 480.27 98.6"><defs><style>.cls-1{fill:#212121;}</style></defs><title>menshealth</title><g id="Layer_2" data-name="Layer 2"><g id="layer"><g id="Page-1"><g id="logo"><path id="mens-health-logo2017-_1_" data-name="mens-health-logo2017-(1)" class="cls-1" d="M163.91,16h4.24v12.4h5.36l4.88-19.69V.8H163.83V16ZM99,32.89c3.2,0,4.72,2.56,4.72,22.65H93.24c.4-20.09,2.08-22.65,5.76-22.65Zm19.45,40.42h-6.8v2.32c0,9.84-2.81,14.57-8.57,14.57-6.64,0-9.84-4.25-9.84-26.73V61.79h26.09c0-26.26-5.76-36.58-20.33-36.58s-23.93,15-23.93,38c0,22.88,9,35.29,24.33,35.29,13.29,0,19-7.44,19-23.29V73.31ZM299.88,32.89c3.2,0,4.72,2.56,4.72,22.65h-9.84c.4-20.09,1.52-22.65,5.12-22.65Zm19.45,40.42h-6.8v2.32c0,9.84-2.8,14.57-8.57,14.57-6.64,0-9.2-4.25-9.2-26.73V61.79h25.45c0-26.26-5.76-36.58-20.33-36.58s-23.93,15-23.93,38c0,22.88,9,35.29,24.33,35.29,13.29,0,19.05-7.44,19.05-23.29V73.31Zm94.44,25.21c9.6,0,13.68-6,13.68-14.57V73.31h-6.4V84c0,4.49-.64,6-2.8,6-1.92,0-2.56-1.28-2.56-5.37V33.29h11.76V26.65H415.93V6.8h-6.64l-9.85,20.73h-5.76v5.52h5.12V80.51c0,12.41,2.16,18,15,18ZM364.23,44.26c0-13.29-6-18.81-18.81-18.81s-21.61,9.2-21.61,20.09v4.24h14.73v-10c0-5.77,1.28-7.93,4.48-7.93s4.48,1.92,4.48,7.93V51.54c-19.45,6.64-25.45,11.53-25.45,28,0,12.81,5.12,19,13.93,19,7.44,0,10.88-5.12,12.8-8.32v7h19.05V91.56h-3.6V44.26ZM475.55,91.48V40.82c0-10.49-4.72-15.37-13-15.37a16.18,16.18,0,0,0-14.09,7.44V0L427.29,2.32V7.84h4.89V91.4h-3.45v5.76h23.53V91.4h-3.44V47.14c0-7.68,2.16-10.89,6-10.89,2.81,0,3.85,1.69,3.85,6V91.4h-3.85v5.76h25.45V91.4h-4.72Zm-128-34V79.23c0,6.4-1.28,9-4.88,9-2.8,0-4.08-2.33-4.08-10,0-13,1.12-16.24,9-20.73Zm-74.83,34V6.64h4.88V1.12H248.26V6.64h6V46.42h-18.8V6.64h6.16V1.12H211.93V6.64h5.12V91.48h-5.12v5.76h29.69V91.48h-6.16V53h18.8v38.5h-6v5.76h29.29V91.48Zm117.57,0V0l-22,2.32V7.84h5.36V91.4h-3.44v5.76h25.21V91.4h-5.12ZM211,78.19c0-22.65-24.33-24.17-24.33-39.13,0-5.13,2.56-7.69,6.64-7.69,6.16,0,9.36,6.17,9.84,19.21h5.52V29.21A31.76,31.76,0,0,0,193,25.37c-11.29,0-20.49,6.4-20.49,19.45,0,21.37,23.69,24.33,23.69,38.89,0,5.77-2.8,8.57-7.28,8.57-6.81,0-10.25-6-10.65-20.73h-5.52v23a37.2,37.2,0,0,0,16.89,3.84c12.32.08,21.29-7,21.29-20.25ZM71.87,91.48V6.64h4.48V1.12h-25L38.9,55.22,25.61,1.12H0V6.64H5.36V91.48H0v5.76H19.69V91.48H13.53V31.85l15.6,65.39h9L53.46,31.45v60H47.7v5.76H76.35V91.48Zm94.6,0V40.82c0-10.49-4.72-15.37-12.81-15.37a16.18,16.18,0,0,0-14.08,7.44V25.45l-21.37,2.32v5.76h4.88v58H118v5.76h25.45V91.48H140V47.22c0-7.68,2.16-10.89,6-10.89,2.8,0,3.84,1.69,3.84,6V91.48H146v5.76h23.93V91.48Z"/></g></g></g></g></svg>